# xmcd
#
# Track frame offsets:
#	150
#	11564
#	29486
#	39710
#	52200
#	64752
#	77897
#	85898
#	99547
#	108321
#	116137
#	125367
#	135559
#	145261
#	158326
#	168907
#	183128
#	195540
#	205770
#	214379
#
# Disc length: 3039 seconds
#
# Revision: 0
# Processed by: cddbd v1.4PL0 Copyright (c) Steve Scherf et al.
# Submitted via: dBpowerAMP V4.0
#
DISCID=180bdd14
DTITLE=Early Grass Revival - Picking The Old Style
DYEAR=1999
DGENRE=Bluegrass
TTITLE0=Shouting On The Hills Of Glory
TTITLE1=Carry Me Home
TTITLE2=I Lived My Life In Vain
TTITLE3=Don't Leave Me Alone
TTITLE4=Hungry Blues
TTITLE5=Bill's Orphan
TTITLE6=She's Gone, Gone, Gone
TTITLE7=The Deeds He Has Done
TTITLE8=Everything You Promissed
TTITLE9=Shame On You
TTITLE10=House Beneath A White Birch
TTITLE11=Moses
TTITLE12=I'm Lonely Tonight
TTITLE13=Daddy's Words
TTITLE14=Someone Will Love Me In Heaven
TTITLE15=Brother Moon
TTITLE16=Voice From On High
TTITLE17=Dancing Rooster
TTITLE18=Lord Put A Rainbow In The Clouds
TTITLE19=Out On The Ocean
EXTD=
EXTT0=
EXTT1=
EXTT2=
EXTT3=
EXTT4=
EXTT5=
EXTT6=
EXTT7=
EXTT8=
EXTT9=
EXTT10=
EXTT11=
EXTT12=
EXTT13=
EXTT14=
EXTT15=
EXTT16=
EXTT17=
EXTT18=
EXTT19=
PLAYORDER=
